<svg width="204" height="192" viewBox="0 0 204 192" fill="none" xmlns="http://www.w3.org/2000/svg">
<g clip-path="url(#clip0_4_24)">
<path d="M93.9555 58.0669L33.0484 72.9533C29.0852 73.9219 26.6577 77.92 27.6263 81.8832L42.3232 142.015C43.2918 145.978 47.2899 148.405 51.2531 147.437L112.16 132.55C116.123 131.582 118.551 127.584 117.582 123.62L102.885 63.489C101.917 59.5258 97.9187 57.0982 93.9555 58.0669Z" fill="#F2F2F2"/>
<path d="M46.1994 71.3029C41.2954 72.5015 37.0684 75.5991 34.4483 79.9143C31.8282 84.2294 31.0296 89.4087 32.2282 94.3127L43.799 141.654C43.9819 142.402 44.3105 143.108 44.766 143.729C45.2215 144.351 45.795 144.877 46.4537 145.277C47.1124 145.676 47.8434 145.943 48.605 146.06C49.3666 146.178 50.1438 146.144 50.8924 145.961L89.7648 136.46C97.1205 134.662 103.461 130.016 107.391 123.543C111.321 117.071 112.519 109.302 110.721 101.947L101.41 63.8497C101.04 62.3379 100.085 61.0348 98.7548 60.227C97.4245 59.4193 95.8279 59.1731 94.3161 59.5426L46.1994 71.3029Z" fill="white"/>
<path d="M161.346 15.544L9.27979 52.7107C9.20863 52.7281 9.13347 52.7166 9.07085 52.6785C9.00823 52.6405 8.96328 52.5792 8.94589 52.508C8.9285 52.4368 8.94008 52.3617 8.9781 52.2991C9.01612 52.2364 9.07747 52.1915 9.14863 52.1741L161.214 15.0074C161.286 14.99 161.361 15.0016 161.423 15.0396C161.486 15.0776 161.531 15.139 161.548 15.2101C161.566 15.2813 161.554 15.3565 161.516 15.4191C161.478 15.4817 161.417 15.5267 161.346 15.544Z" fill="#E6E6E6"/>
<path d="M14.9192 42.7961C16.1724 42.4898 16.9345 41.2029 16.6214 39.9218C16.3082 38.6407 15.0385 37.8505 13.7853 38.1568C12.5321 38.4631 11.7701 39.7499 12.0832 41.031C12.3963 42.3121 13.666 43.1024 14.9192 42.7961Z" fill="#E6E6E6"/>
<path d="M22.7579 40.8802C24.0111 40.5739 24.7732 39.2871 24.46 38.006C24.1469 36.7249 22.8772 35.9346 21.624 36.2409C20.3708 36.5472 19.6088 37.834 19.9219 39.1152C20.235 40.3963 21.5047 41.1865 22.7579 40.8802Z" fill="#E6E6E6"/>
<path d="M30.5966 38.9644C31.8497 38.6581 32.6118 37.3712 32.2987 36.0901C31.9856 34.809 30.7158 34.0188 29.4627 34.325C28.2095 34.6313 27.4474 35.9182 27.7605 37.1993C28.0736 38.4804 29.3434 39.2706 30.5966 38.9644Z" fill="#E6E6E6"/>
<path d="M39.4159 36.2935C39.3802 36.3023 39.343 36.3038 39.3067 36.298C39.2704 36.2922 39.2356 36.2792 39.2043 36.2597L37.2908 35.0688C37.2294 35.0307 37.1855 34.97 37.1684 34.8999C37.1512 34.8297 37.1622 34.7557 37.199 34.6936L38.3476 32.7544C38.3659 32.7228 38.3903 32.6951 38.4193 32.673C38.4483 32.6509 38.4815 32.6348 38.5168 32.6255C38.5521 32.6163 38.5889 32.6142 38.625 32.6192C38.6612 32.6243 38.696 32.6365 38.7274 32.6551C38.7588 32.6737 38.7862 32.6983 38.808 32.7276C38.8299 32.7568 38.8457 32.7901 38.8546 32.8255C38.8634 32.8609 38.8652 32.8978 38.8598 32.9338C38.8544 32.9699 38.8418 33.0046 38.8229 33.0358L37.8121 34.7425L39.4963 35.7907C39.5424 35.8194 39.5791 35.8611 39.6016 35.9106C39.6242 35.9601 39.6316 36.0151 39.623 36.0688C39.6145 36.1225 39.5902 36.1724 39.5534 36.2124C39.5165 36.2524 39.4687 36.2806 39.4159 36.2935Z" fill="#E6E6E6"/>
<path d="M41.9886 35.6647C41.9358 35.6776 41.8804 35.6746 41.8292 35.6562C41.7781 35.6377 41.7336 35.6045 41.7012 35.5609C41.6688 35.5172 41.65 35.4649 41.6472 35.4106C41.6444 35.3563 41.6577 35.3024 41.6854 35.2556L42.6961 33.5488L41.0121 32.5008C40.9809 32.4818 40.9538 32.4568 40.9323 32.4273C40.9109 32.3978 40.8955 32.3643 40.887 32.3288C40.8786 32.2933 40.8772 32.2564 40.8831 32.2204C40.889 32.1844 40.9019 32.1499 40.9212 32.1189C40.9405 32.0879 40.9658 32.061 40.9955 32.0399C41.0252 32.0187 41.0588 32.0036 41.0944 31.9955C41.13 31.9874 41.1669 31.9864 41.2028 31.9927C41.2388 31.9989 41.2732 32.0122 41.304 32.0318L43.2174 33.2226C43.2787 33.2607 43.3227 33.3213 43.3398 33.3915C43.3569 33.4616 43.3459 33.5357 43.3091 33.5978L42.1607 35.5371C42.142 35.5688 42.1172 35.5964 42.0876 35.6183C42.058 35.6402 42.0244 35.656 41.9886 35.6647Z" fill="#E6E6E6"/>
<path d="M144.748 6.43253L141.901 7.12835C141.824 7.14719 141.751 7.18105 141.687 7.228C141.623 7.27495 141.569 7.33407 141.528 7.40198C141.486 7.46989 141.459 7.54525 141.447 7.62377C141.435 7.70229 141.438 7.78243 141.457 7.8596L142.154 10.7092C142.172 10.7863 142.206 10.8591 142.253 10.9231C142.3 10.9872 142.359 11.0414 142.427 11.0827C142.495 11.1239 142.57 11.1514 142.649 11.1635C142.728 11.1755 142.808 11.1721 142.885 11.1532L145.732 10.4574C145.888 10.4193 146.023 10.3209 146.106 10.1837C146.19 10.0465 146.216 9.88173 146.178 9.72545L145.482 6.87588C145.443 6.71988 145.344 6.5856 145.207 6.50249C145.069 6.41938 144.904 6.39422 144.748 6.43253Z" fill="#E6E6E6"/>
<path d="M137.772 8.13764L134.925 8.83346C134.848 8.8523 134.775 8.88616 134.711 8.93311C134.647 8.98006 134.592 9.03918 134.551 9.10709C134.51 9.17499 134.483 9.25036 134.47 9.32888C134.458 9.4074 134.462 9.48754 134.481 9.56471L135.177 12.4143C135.196 12.4915 135.23 12.5642 135.277 12.6283C135.324 12.6923 135.383 12.7466 135.451 12.7878C135.519 12.829 135.594 12.8565 135.673 12.8686C135.751 12.8807 135.831 12.8772 135.908 12.8583L138.755 12.1625C138.912 12.1244 139.046 12.0261 139.13 11.8889C139.214 11.7516 139.24 11.5868 139.202 11.4306L138.506 8.58099C138.467 8.42499 138.368 8.29071 138.23 8.2076C138.093 8.12449 137.928 8.09933 137.772 8.13764Z" fill="#E6E6E6"/>
<path d="M151.355 4.95997L148.508 5.65579C148.431 5.67462 148.358 5.70849 148.294 5.75544C148.23 5.80239 148.175 5.8615 148.134 5.92941C148.093 5.99732 148.066 6.07269 148.053 6.15121C148.041 6.22973 148.045 6.30986 148.064 6.38703L148.76 9.2366C148.779 9.31378 148.813 9.38649 148.86 9.45058C148.907 9.51467 148.966 9.56888 149.034 9.61011C149.102 9.65134 149.177 9.67879 149.256 9.69089C149.334 9.70298 149.414 9.69949 149.491 9.6806L152.338 8.98479C152.495 8.94677 152.629 8.84838 152.713 8.71118C152.797 8.57398 152.823 8.40916 152.785 8.25289L152.089 5.40332C152.05 5.24732 151.951 5.11304 151.813 5.02993C151.676 4.94682 151.511 4.92166 151.355 4.95997Z" fill="#E6E6E6"/>
<path d="M95.2842 23.0943L76.77 27.6194C76.1296 27.7759 75.4531 27.6716 74.8896 27.3295C74.326 26.9873 73.9214 26.4352 73.7649 25.7947C73.6084 25.1543 73.7127 24.4779 74.0549 23.9143C74.3971 23.3507 74.9491 22.9462 75.5896 22.7896L94.1037 18.2645C94.7442 18.108 95.4206 18.2123 95.9842 18.5545C96.5478 18.8967 96.9523 19.4487 97.1088 20.0892C97.2654 20.7297 97.1611 21.4061 96.8189 21.9697C96.4767 22.5332 95.9247 22.9378 95.2842 23.0943Z" fill="#E6E6E6"/>
<path d="M84.4354 110.88L43.1159 120.979C42.8796 121.037 42.63 120.998 42.422 120.872C42.2141 120.746 42.0648 120.542 42.0071 120.306C41.9493 120.069 41.9878 119.82 42.114 119.612C42.2403 119.404 42.444 119.255 42.6803 119.197L83.9998 109.098C84.2362 109.04 84.4858 109.079 84.6937 109.205C84.9016 109.331 85.0509 109.535 85.1087 109.771C85.1664 110.008 85.128 110.257 85.0017 110.465C84.8754 110.673 84.6717 110.822 84.4354 110.88Z" fill="#F2F2F2"/>
<path d="M78.2234 85.464L15.9872 100.675C15.8701 100.704 15.7485 100.71 15.6293 100.691C15.5101 100.673 15.3956 100.632 15.2925 100.569C15.1894 100.507 15.0996 100.424 15.0283 100.327C14.9569 100.23 14.9055 100.12 14.8768 100.002C14.8482 99.8853 14.843 99.7636 14.8614 99.6445C14.8798 99.5253 14.9216 99.4109 14.9842 99.3079C15.0469 99.2049 15.1293 99.1152 15.2267 99.044C15.324 98.9729 15.4345 98.9216 15.5517 98.8932L77.7878 83.6819C78.024 83.6246 78.2732 83.6634 78.4808 83.7897C78.6884 83.916 78.8374 84.1195 78.8951 84.3556C78.9528 84.5916 78.9145 84.8409 78.7886 85.0488C78.6626 85.2566 78.4594 85.4059 78.2234 85.464Z" fill="#F2F2F2"/>
<path d="M79.7798 91.8267L17.541 107.039C17.3049 107.097 17.1015 107.246 16.9754 107.454C16.8494 107.662 16.811 107.912 16.8688 108.148C16.9265 108.384 17.0756 108.588 17.2834 108.714C17.4912 108.841 17.7406 108.879 17.9769 108.822L80.2157 93.6101C80.4518 93.552 80.6553 93.4025 80.7813 93.1945C80.9073 92.9866 80.9457 92.7371 80.8879 92.5008C80.8302 92.2646 80.6811 92.0609 80.4733 91.9345C80.2656 91.8081 80.0161 91.7693 79.7798 91.8267Z" fill="#F2F2F2"/>
<path d="M82.2055 101.757L19.9694 116.968C19.733 117.026 19.4834 116.987 19.2755 116.861C19.0675 116.735 18.9183 116.531 18.8605 116.295C18.8028 116.058 18.8412 115.809 18.9675 115.601C19.0938 115.393 19.2975 115.244 19.5338 115.186L81.77 99.9746C82.0063 99.9169 82.2559 99.9554 82.4638 100.082C82.6718 100.208 82.821 100.412 82.8788 100.648C82.9366 100.884 82.8981 101.134 82.7718 101.342C82.6456 101.55 82.4419 101.699 82.2055 101.757Z" fill="#F2F2F2"/>
<path d="M152.012 160.138L149.155 160.836L145.102 150.147L149.319 149.117L152.012 160.138Z" fill="#A0616A"/>
<path d="M152.841 163.094L144.055 165.241L144.028 165.13C143.806 164.223 143.954 163.265 144.438 162.467C144.923 161.669 145.705 161.096 146.612 160.874L146.612 160.874L147.919 159.264L151.211 159.75L151.978 159.563L152.841 163.094Z" fill="#2F2E41"/>
<path d="M180.761 153.111L177.904 153.809L173.851 143.121L178.068 142.09L180.761 153.111Z" fill="#A0616A"/>
<path d="M181.59 156.067L172.804 158.215L172.776 158.103C172.555 157.196 172.703 156.239 173.187 155.44C173.672 154.642 174.454 154.069 175.36 153.848L175.361 153.848L176.668 152.238L179.96 152.724L180.727 152.536L181.59 156.067Z" fill="#2F2E41"/>
<path d="M138.868 96.2534C138.868 96.2534 137.479 98.7036 137.715 100.015C137.952 101.326 138.356 98.7405 137.952 101.326C137.548 103.912 137.165 102.348 137.548 103.912C137.93 105.477 136.231 107.511 136.231 107.511L136.25 122.404L146.264 154.839L150.567 153.787C151.586 140.621 151.146 130.755 147.973 127.064L150.702 112.323C150.702 112.323 170.628 144.893 171.191 145.196C171.754 145.5 171.61 144.913 171.754 145.5C171.897 146.087 171.167 145.643 171.897 146.087L175.304 148.156L179.315 146.761C179.315 146.761 173.613 121.047 167.955 117.745C167.955 117.745 165.667 103.797 164.619 104.094C163.571 104.391 164.001 106.151 163.571 104.391C163.141 102.631 164.279 101.855 164.279 101.855L157.737 90.352L138.868 96.2534Z" fill="#2F2E41"/>
<path d="M154.377 63.5834L154.47 81.2047L156.923 87.168L159.863 94.3116L155.905 95.0116L149.78 96.0935L138.409 98.1051L129.399 65.4885L133.223 58.8669L133.504 56.0372L140.917 54.1769L143.458 56.8714L148.342 57.0539C149.021 57.2829 149.676 57.5739 150.301 57.9231C151.683 58.6914 153.005 59.773 153.804 61.0165C154.041 61.3778 154.231 61.7681 154.369 62.1779L154.377 63.5834Z" fill="#E6E6E6"/>
<path d="M130.143 114.274C130.402 114.035 130.605 113.744 130.74 113.419C130.875 113.094 130.938 112.743 130.924 112.391C130.91 112.04 130.82 111.695 130.66 111.382C130.5 111.069 130.274 110.794 129.997 110.577L133.14 98.8818L130.119 97.217L126.487 111.134C126.156 111.627 126.017 112.225 126.097 112.813C126.177 113.402 126.47 113.941 126.921 114.328C127.371 114.715 127.948 114.923 128.542 114.913C129.136 114.903 129.705 114.676 130.143 114.274Z" fill="#E6E6E6"/>
<path d="M132.171 62.6823L136.631 86.6533L133.904 103.069L131.106 109.57L130.968 106.968L127.766 106.238L127.466 106.17L127.748 83.5728L126.233 75.1885C125.973 73.7456 126.015 72.2644 126.356 70.8385C126.698 69.4127 127.331 68.0732 128.217 66.9047L130.756 63.5567L132.171 62.6823Z" fill="#E6E6E6"/>
<path d="M130.143 114.274C130.402 114.035 130.605 113.744 130.74 113.419C130.875 113.094 130.938 112.743 130.924 112.391C130.91 112.04 130.82 111.695 130.66 111.382C130.5 111.069 130.274 110.794 129.997 110.577L133.14 98.8818L130.119 97.217L126.487 111.134C126.156 111.627 126.017 112.225 126.097 112.813C126.177 113.402 126.47 113.941 126.921 114.328C127.371 114.715 127.948 114.923 128.542 114.913C129.136 114.903 129.705 114.676 130.143 114.274Z" fill="#A0616A"/>
<path d="M132.171 62.6823L136.631 86.6533L133.904 103.069L131.106 109.57L130.968 106.968L127.766 106.238L127.466 106.17L127.748 83.5728L126.233 75.1885C125.973 73.7456 126.015 72.2644 126.356 70.8385C126.698 69.4127 127.331 68.0732 128.217 66.9047L130.756 63.5567L132.171 62.6823Z" fill="#E6E6E6"/>
<path d="M138.501 61.9993L77.5935 76.8857C73.6303 77.8544 71.2027 81.8524 72.1714 85.8156L79.851 117.237C80.8197 121.2 84.8177 123.627 88.7809 122.659L149.688 107.772C153.651 106.804 156.079 102.806 155.11 98.8424L147.43 67.4214C146.462 63.4582 142.464 61.0306 138.501 61.9993Z" fill="white"/>
<path d="M149.754 108.041L88.8466 122.927C86.8724 123.407 84.7883 123.085 83.0516 122.03C81.3149 120.976 80.0674 119.275 79.5828 117.302L71.9031 85.8812C71.4229 83.9069 71.7455 81.8229 72.8 80.0862C73.8545 78.3495 75.5548 77.102 77.5279 76.6173L138.435 61.7309C140.409 61.2508 142.493 61.5734 144.23 62.6279C145.967 63.6824 147.214 65.3827 147.699 67.3558L155.378 98.7769C155.859 100.751 155.536 102.835 154.482 104.572C153.427 106.309 151.727 107.556 149.754 108.041ZM77.6591 77.154C75.8271 77.6018 74.2479 78.759 73.2691 80.371C72.2903 81.9831 71.9919 83.918 72.4397 85.75L75.3102 97.4943C77.0334 104.545 81.487 110.622 87.691 114.389C93.8951 118.156 101.342 119.304 108.392 117.581L149.622 107.504C151.454 107.056 153.034 105.899 154.012 104.287C154.991 102.675 155.29 100.74 154.842 98.9082L147.162 67.487C146.94 66.5798 146.542 65.7253 145.99 64.972C145.438 64.2188 144.743 63.5817 143.945 63.097C143.147 62.6123 142.261 62.2896 141.338 62.1473C140.415 62.005 139.473 62.0459 138.566 62.2676L77.6591 77.154Z" fill="#3F3D56"/>
<path d="M101.843 106.302L87.6222 109.778C87.1035 109.905 86.7858 110.428 86.9126 110.947C87.0394 111.465 87.5626 111.783 88.0813 111.656L102.302 108.18C102.821 108.054 103.139 107.53 103.012 107.012C102.885 106.493 102.362 106.175 101.843 106.302Z" fill="#6C63FF"/>
<path d="M144.152 93.2601L134.224 95.6866C133.705 95.8134 133.387 96.3366 133.514 96.8553L134.76 101.953C134.887 102.472 135.41 102.79 135.929 102.663L145.857 100.236C146.375 100.11 146.693 99.5865 146.566 99.0678L145.32 93.9697C145.193 93.4511 144.67 93.1334 144.152 93.2601Z" fill="#6C63FF"/>
<path d="M87.6763 93.1302C90.3438 92.4783 91.9776 89.7874 91.3257 87.12C90.6737 84.4526 87.9828 82.8187 85.3154 83.4707C82.648 84.1226 81.0142 86.8135 81.6661 89.4809C82.3181 92.1483 85.0089 93.7822 87.6763 93.1302Z" fill="#6C63FF"/>
<path d="M136.596 53.7677C139.945 52.9491 141.997 49.5703 141.178 46.221C140.36 42.8716 136.981 40.8201 133.631 41.6387C130.282 42.4573 128.231 45.8361 129.049 49.1854C129.868 52.5348 133.247 54.5863 136.596 53.7677Z" fill="#A0616A"/>
<path d="M140.855 49.6218C140.991 49.9725 140.345 50.171 140.115 49.873C139.886 49.575 139.985 49.1494 140.095 48.7896L140.349 47.9543C140.397 47.797 140.406 47.6306 140.377 47.4688C140.347 47.3071 140.28 47.1547 140.179 47.0244C140.079 46.8941 139.949 46.7897 139.8 46.7198C139.651 46.65 139.488 46.6167 139.324 46.6227C139.502 45.6357 138.801 44.6295 137.872 44.2502C136.944 43.8709 136.032 45.2281 135.12 45.6455C134.208 46.0629 133.263 45.5178 132.497 46.1651L132.725 44.829L130.13 46.7877L130.472 45.264C129.75 45.4828 129.656 46.4506 129.686 47.2048C129.717 48.0083 129.543 49.0649 128.672 49.1097C128.464 49.1139 128.259 49.0593 128.081 48.9521C127.902 48.8449 127.758 48.6895 127.664 48.5037C126.415 46.1813 127.619 43.0143 129.988 41.9745C130.074 41.179 130.413 40.4321 130.954 39.843C131.495 39.2539 132.211 38.8536 132.997 38.7008C133.782 38.5481 134.596 38.6508 135.318 38.9939C136.041 39.3371 136.635 39.9027 137.013 40.6078L137.582 39.416L138.084 40.785C138.652 40.5805 139.303 40.8576 139.712 41.3017C140.121 41.7458 140.149 42.4414 140.548 42.8944C142.337 44.9246 142.574 47.6443 141.128 49.8901" fill="#2F2E41"/>
<path d="M187.979 150.205C188.106 150.18 188.221 150.117 188.31 150.025C188.399 149.932 188.458 149.814 188.478 149.687C188.498 149.561 188.478 149.43 188.422 149.315C188.366 149.199 188.275 149.104 188.163 149.042L188.081 148.886C188.083 148.871 188.085 148.857 188.087 148.842C188.14 148.515 188.289 148.21 188.515 147.967C188.74 147.724 189.033 147.553 189.355 147.475C189.678 147.397 190.016 147.417 190.328 147.531C190.639 147.645 190.91 147.849 191.106 148.116C191.89 149.184 192.809 150.22 193.271 151.439C193.475 151.978 193.584 152.548 193.593 153.123C194.134 150.313 194.064 147.418 193.388 144.637C193.218 143.939 193.009 143.252 192.762 142.577C192.558 142.024 192.332 141.482 192.081 140.949C190.717 138.06 188.687 135.537 186.158 133.585C185.096 133.303 184.146 132.702 183.436 131.863C183.179 131.561 182.967 131.225 182.807 130.863C182.916 130.851 182.816 129.169 182.712 129.09C182.805 128.83 183.041 128.655 183.149 128.397C183.684 127.117 184.833 127.037 185.769 128.37C187.15 128.69 187.413 129.717 186.901 130.891C186.575 131.638 186.717 132.506 186.461 133.283C186.517 133.328 186.576 133.371 186.632 133.416C187.673 134.24 188.631 135.165 189.491 136.177C189.035 134.92 188.884 133.572 189.05 132.244C189.242 130.998 189.888 129.83 190.424 128.663C190.564 128.35 190.794 128.086 191.085 127.904C191.376 127.722 191.714 127.63 192.057 127.64C192.399 127.65 192.731 127.761 193.011 127.96C193.29 128.159 193.505 128.436 193.627 128.757C193.632 128.771 193.637 128.785 193.642 128.799C193.543 128.892 193.447 128.988 193.355 129.088C193.239 129.214 193.164 129.372 193.14 129.542C193.115 129.712 193.143 129.885 193.219 130.038C193.294 130.192 193.415 130.319 193.564 130.403C193.713 130.487 193.884 130.524 194.055 130.51L194.073 130.508C194.133 130.933 194.161 131.361 194.156 131.79C196.088 135.388 194.286 137.311 191.239 138.123C191.18 138.174 191.123 138.225 191.063 138.274C192.047 139.78 192.832 141.407 193.396 143.114C193.726 144.123 193.973 145.156 194.137 146.204L194.133 146.167C194.076 144.971 194.433 143.792 195.144 142.828C196.205 141.414 197.982 140.554 199.199 139.328C199.327 139.193 199.492 139.098 199.672 139.053C199.853 139.009 200.043 139.017 200.219 139.076C200.395 139.136 200.551 139.245 200.667 139.39C200.784 139.535 200.856 139.711 200.876 139.896L200.88 139.935C200.688 140.074 200.505 140.225 200.331 140.387C200.232 140.48 200.136 140.577 200.044 140.676C199.928 140.803 199.853 140.961 199.829 141.13C199.805 141.3 199.832 141.473 199.908 141.627C199.984 141.78 200.104 141.908 200.253 141.992C200.402 142.076 200.574 142.113 200.744 142.098L200.762 142.096C200.774 142.095 200.785 142.094 200.798 142.093C200.646 143.053 200.33 143.979 199.864 144.832C200.062 148.337 197.473 149.307 194.38 149.028L194.379 149.029C194.398 150.466 194.268 151.901 193.991 153.311L189.156 154.493C189.125 154.443 189.096 154.391 189.067 154.341C189.522 154.26 189.965 154.124 190.386 153.935C189.92 153.582 189.452 153.226 188.986 152.874C188.976 152.867 188.966 152.861 188.957 152.853C188.72 152.672 188.482 152.494 188.245 152.313L188.245 152.313C188.066 151.624 187.977 150.916 187.979 150.205L187.979 150.205Z" fill="#F2F2F2"/>
<path d="M114.297 172.804C114.307 172.846 114.325 172.886 114.351 172.921C114.376 172.955 114.408 172.985 114.445 173.007C114.482 173.03 114.523 173.045 114.566 173.051C114.609 173.058 114.652 173.056 114.694 173.045L203.318 151.385C203.403 151.364 203.476 151.31 203.521 151.236C203.566 151.161 203.58 151.072 203.559 150.987C203.539 150.903 203.485 150.83 203.411 150.784C203.336 150.739 203.247 150.725 203.162 150.746L114.538 172.407C114.496 172.417 114.457 172.435 114.422 172.461C114.387 172.486 114.357 172.518 114.335 172.555C114.312 172.592 114.298 172.633 114.291 172.676C114.285 172.719 114.287 172.762 114.297 172.804Z" fill="#CCCCCC"/>
<path d="M152.419 107.308C152.669 107.061 152.863 106.762 152.986 106.432C153.109 106.103 153.159 105.75 153.133 105.399C153.107 105.049 153.004 104.708 152.833 104.4C152.662 104.093 152.426 103.826 152.142 103.619L154.868 91.8196L151.79 90.2632L148.654 104.301C148.341 104.805 148.224 105.407 148.324 105.993C148.425 106.578 148.737 107.106 149.201 107.477C149.665 107.847 150.249 108.035 150.842 108.004C151.435 107.973 151.996 107.726 152.419 107.308Z" fill="#A0616A"/>
<path d="M153.804 61.0165L154.369 62.1778L157.922 79.4736L156.923 87.168L155.905 95.0116L155.78 95.9777L153.215 102.573L152.984 99.9766L149.757 99.3607L149.457 99.3061L149.78 96.0935L150.527 88.7113L150.849 85.5161L148.936 76.711L147.123 68.3875C146.812 66.9549 146.801 65.4733 147.091 64.0362C147.382 62.5992 147.967 61.2381 148.81 60.0389L150.301 57.9231C151.683 58.6914 153.005 59.7729 153.804 61.0165Z" fill="#E6E6E6"/>
<path d="M100.943 119.314L88.2989 122.12C86.7337 122.5 85.0815 122.244 83.7049 121.407C82.3282 120.571 81.3394 119.223 80.9552 117.659L77.2043 104.639C81.3693 114.983 88.9667 120.334 100.943 119.314Z" fill="#6C63FF"/>
</g>
<defs>
<clipPath id="clip0_4_24">
<rect width="171.22" height="155.244" fill="white" transform="translate(0.492676 41.1442) rotate(-13.7345)"/>
</clipPath>
</defs>
</svg>
