<svg width="302" height="242" viewBox="0 0 302 242" fill="none" xmlns="http://www.w3.org/2000/svg">
<g clip-path="url(#clip0_4_103)">
<path d="M237.769 130.88C238.009 130.855 238.236 130.758 238.419 130.6C238.602 130.442 238.732 130.232 238.791 129.997C238.851 129.763 238.837 129.516 238.751 129.29C238.666 129.064 238.513 128.869 238.313 128.733C238.267 128.621 238.233 128.54 238.186 128.427C238.193 128.4 238.2 128.373 238.207 128.346C238.363 127.742 238.694 127.198 239.158 126.781C239.622 126.365 240.199 126.095 240.816 126.006C241.433 125.917 242.063 126.012 242.626 126.28C243.189 126.548 243.661 126.976 243.981 127.512C245.263 129.647 246.803 131.749 247.457 134.111C247.745 135.156 247.85 136.242 247.767 137.322C249.265 132.152 249.636 126.719 248.852 121.392C248.655 120.056 248.382 118.731 248.037 117.425C247.752 116.354 247.421 115.299 247.044 114.258C244.992 108.61 241.63 103.53 237.236 99.4346C235.297 98.7212 233.623 97.4302 232.44 95.7355C232.012 95.1267 231.674 94.4592 231.438 93.7537C231.644 93.7502 231.852 93.7363 232.056 93.7196C232.12 93.7135 232.186 93.707 232.25 93.701L232.274 93.6985C232.498 93.6756 232.71 93.5883 232.885 93.4473C233.061 93.3063 233.191 93.1175 233.262 92.9037C233.333 92.6899 233.34 92.4603 233.283 92.2423C233.227 92.0244 233.108 91.8275 232.942 91.6753C232.839 91.5806 232.736 91.4861 232.632 91.3915C232.475 91.2452 232.315 91.1027 232.158 90.9565C232.14 90.943 232.123 90.9285 232.107 90.913C231.926 90.7465 231.746 90.5832 231.566 90.4166C231.78 89.9427 232.101 89.5247 232.503 89.1953C233.898 88.0723 236.1 88.3802 237.409 89.6007C238.722 90.8206 239.22 92.7316 239.092 94.5181C238.932 96.0459 238.513 97.5351 237.854 98.9221C237.953 99.0161 238.054 99.1062 238.153 99.2001C239.958 100.926 241.59 102.825 243.025 104.869C242.388 102.435 242.338 99.8842 242.879 97.4271C243.454 95.1264 244.866 93.0514 246.069 90.9578C247.514 88.4431 251.309 88.8841 252.046 91.6907C252.053 91.7179 252.06 91.7451 252.067 91.7723C251.866 91.9292 251.67 92.093 251.48 92.2638C251.241 92.4802 251.074 92.7636 250.999 93.077C250.924 93.3904 250.946 93.7192 251.061 94.0201C251.176 94.3211 251.379 94.5803 251.644 94.7638C251.909 94.9473 252.223 95.0465 252.545 95.0484L252.577 95.0486C252.617 95.8541 252.595 96.6614 252.512 97.4636C252.26 99.7062 251.548 101.872 250.42 103.826C249.293 105.78 247.774 107.479 245.959 108.817C245.839 108.903 245.723 108.988 245.603 109.07C247.184 112.061 248.37 115.245 249.131 118.542C249.573 120.488 249.858 122.466 249.982 124.458L249.982 124.387C250.081 122.137 250.954 119.99 252.452 118.31C254.681 115.846 258.154 114.545 260.644 112.46C260.907 112.23 261.231 112.08 261.577 112.027C261.923 111.975 262.276 112.023 262.596 112.166C262.916 112.308 263.188 112.539 263.381 112.831C263.574 113.123 263.679 113.464 263.685 113.814C263.684 113.839 263.684 113.864 263.684 113.889C263.301 114.116 262.931 114.367 262.579 114.64C262.377 114.797 262.182 114.961 261.992 115.132C261.753 115.348 261.585 115.631 261.511 115.945C261.436 116.258 261.458 116.587 261.573 116.888C261.688 117.189 261.891 117.448 262.156 117.632C262.42 117.815 262.734 117.914 263.056 117.916L263.089 117.916C263.113 117.916 263.133 117.917 263.157 117.917C262.707 119.688 261.955 121.368 260.936 122.884C259.671 124.723 258.044 126.284 256.155 127.472C254.266 128.659 252.154 129.448 249.95 129.789L249.946 129.79C249.734 132.484 249.243 135.15 248.48 137.742L239.228 139.115C239.18 139.017 239.134 138.915 239.089 138.816C239.954 138.743 240.806 138.564 241.627 138.284C240.815 137.543 240.002 136.795 239.191 136.053C239.173 136.04 239.156 136.025 239.14 136.01C238.728 135.63 238.313 135.254 237.901 134.874L237.901 134.874C237.686 133.554 237.641 132.211 237.769 130.88L237.769 130.88Z" fill="#F2F2F2"/>
<path d="M37.4679 87.7788C37.2409 87.8612 36.994 87.8718 36.7607 87.809C36.5275 87.7463 36.3191 87.6133 36.1638 87.4281C36.0085 87.2429 35.9138 87.0144 35.8925 86.7736C35.8713 86.5328 35.9245 86.2912 36.045 86.0818C36.0382 85.9601 36.0333 85.8727 36.0265 85.7511C36.0087 85.7297 35.9908 85.7083 35.9729 85.687C35.5699 85.2107 35.0354 84.8642 34.4364 84.6909C33.8374 84.5177 33.2007 84.5254 32.6063 84.7132C32.0118 84.901 31.4861 85.2605 31.0953 85.7465C30.7044 86.2325 30.4657 86.8233 30.4093 87.4448C30.1828 89.9255 29.7085 92.4876 30.1466 94.8992C30.3407 95.9651 30.7181 96.9892 31.2619 97.9261C27.6661 93.9206 24.9724 89.1883 23.3635 84.0501C22.9612 82.7603 22.6311 81.4491 22.375 80.1225C22.1659 79.0346 22.0051 77.94 21.8924 76.8385C21.2878 70.8599 22.1085 64.8236 24.2871 59.2253C25.7231 57.7403 26.6697 55.8501 26.9993 53.8096C27.1202 53.0753 27.1343 52.3273 27.0412 51.5889C26.8539 51.6754 26.6605 51.7533 26.4693 51.827C26.4095 51.8491 26.3465 51.8723 26.2866 51.8945L26.264 51.9027C26.0525 51.9792 25.8233 51.9929 25.6041 51.9421C25.3849 51.8913 25.185 51.7782 25.0285 51.6163C24.872 51.4545 24.7656 51.2508 24.722 51.0299C24.6784 50.8089 24.6995 50.5801 24.7829 50.371C24.8348 50.2408 24.8868 50.1107 24.9389 49.9807C25.017 49.7805 25.0993 49.5826 25.1773 49.3825C25.1874 49.3627 25.1963 49.3423 25.204 49.3214C25.2943 49.0929 25.3856 48.8676 25.4759 48.639C25.0771 48.3053 24.6067 48.0682 24.1013 47.9464C22.3564 47.5414 20.5077 48.7753 19.8583 50.4437C19.2057 52.113 19.5881 54.0503 20.4795 55.6038C21.2871 56.9103 22.311 58.0698 23.5072 59.0326C23.4591 59.1601 23.4069 59.2853 23.3588 59.4128C22.4829 61.7517 21.8382 64.171 21.4338 66.636C20.9495 64.1668 19.8866 61.8477 18.3324 59.8695C16.8143 58.0476 14.6417 56.792 12.6484 55.4293C10.2541 53.7926 7.02785 55.8389 7.58336 58.687C7.58874 58.7146 7.59419 58.7421 7.5997 58.7697C7.84945 58.8234 8.097 58.8859 8.34237 58.9571C8.65115 59.0483 8.92523 59.2308 9.12871 59.4806C9.33219 59.7304 9.45558 60.0358 9.4827 60.3569C9.50982 60.678 9.43942 60.9998 9.28072 61.2801C9.12201 61.5603 8.8824 61.7861 8.59329 61.9277L8.56368 61.9422C8.87811 62.6848 9.24846 63.4025 9.67155 64.089C10.8729 65.9993 12.4554 67.6406 14.3199 68.9102C16.1844 70.1798 18.2906 71.0502 20.5065 71.4669C20.6513 71.4921 20.7929 71.5182 20.9367 71.5402C20.8122 74.9211 21.1274 78.304 21.8744 81.6038C22.3212 83.5487 22.9244 85.4544 23.6781 87.3021L23.6475 87.2378C22.5801 85.2547 20.8619 83.7008 18.7829 82.8386C15.7044 81.5875 12.0111 81.9251 8.86261 81.1296C8.52538 81.0366 8.16865 81.0421 7.83452 81.1454C7.50038 81.2487 7.20276 81.4456 6.97677 81.7127C6.75078 81.9798 6.60583 82.306 6.55903 82.653C6.51224 82.9999 6.56554 83.3531 6.71264 83.6707C6.72353 83.6932 6.73449 83.7157 6.7455 83.7381C7.18967 83.7759 7.63106 83.8414 8.06712 83.9341C8.31687 83.9878 8.56442 84.0503 8.80978 84.1215C9.11856 84.2128 9.39264 84.3952 9.59612 84.645C9.7996 84.8948 9.92299 85.2002 9.95011 85.5213C9.97724 85.8424 9.90683 86.1642 9.74813 86.4445C9.58942 86.7248 9.34982 86.9505 9.0607 87.0921L9.03107 87.1066C9.00967 87.1168 8.99147 87.126 8.9701 87.1362C10.145 88.5358 11.5518 89.7226 13.1287 90.6447C15.0668 91.7517 17.2102 92.4509 19.4275 92.6994C21.6448 92.9479 23.8892 92.7405 26.0232 92.0898L26.0264 92.0888C27.3882 94.4236 28.9887 96.6106 30.8021 98.6144L39.7311 95.8298C39.7321 95.7205 39.729 95.609 39.7268 95.5007C38.9166 95.8105 38.0714 96.0197 37.2102 96.1238C37.6191 95.1034 38.026 94.0766 38.4349 93.0562C38.4449 93.0364 38.4538 93.016 38.4615 92.9952C38.6678 92.4739 38.8782 91.9548 39.0845 91.4335L39.0845 91.4329C38.7046 90.1506 38.1613 88.9225 37.4682 87.7789L37.4679 87.7788Z" fill="#F2F2F2"/>
<path d="M162.859 59.6491C163.335 59.6849 163.797 59.8246 164.213 60.0586C164.63 60.2926 164.99 60.6151 165.268 61.0033C165.547 61.3916 165.736 61.8362 165.825 62.3058C165.913 62.7755 165.897 63.2587 165.779 63.7215L171.744 68.2097L169.905 72.5029L161.569 66.0463C160.806 65.795 160.161 65.2722 159.756 64.5768C159.352 63.8815 159.216 63.0619 159.375 62.2733C159.534 61.4848 159.976 60.7821 160.618 60.2985C161.261 59.8148 162.058 59.5838 162.859 59.6491Z" fill="#A0616A"/>
<path d="M211.322 64.0323C210.74 63.3997 210.038 62.8884 209.258 62.5278C208.478 62.1671 207.634 61.9642 206.775 61.9306C205.917 61.8971 205.06 62.0335 204.254 62.3321C203.448 62.6307 202.71 63.0857 202.08 63.6708L187.937 76.8154L167.666 65.4443L164.136 70.3206L188.216 91.4767L210.601 73.5659C210.078 73.9839 212.251 65.0401 211.322 64.0323Z" fill="#CCCCCC"/>
<path d="M185.94 103.49C187.504 111.451 187.486 119.642 185.888 127.595C184.289 135.548 181.141 143.107 176.622 149.84C172.104 156.573 166.304 162.349 159.555 166.837C152.805 171.326 145.237 174.438 137.285 175.998C103.841 182.563 71.4016 160.744 64.8296 127.264C63.5454 120.753 63.318 114.078 64.1562 107.495C65.8142 94.6352 71.4691 82.6239 80.3212 73.1598C89.1733 63.6958 100.775 57.258 113.485 54.7567C124.447 52.6009 135.789 53.4656 146.301 57.2584C156.812 61.0513 166.099 67.6299 173.169 76.2921C174.92 78.428 176.524 80.6805 177.969 83.0341C178.17 83.3619 178.367 83.6904 178.562 84.023L178.562 84.0264C179.425 85.4868 180.228 86.9894 180.97 88.5342C183.258 93.287 184.928 98.3133 185.94 103.49Z" fill="#3F3D56"/>
<path d="M110.731 75.7778C107.72 74.8388 104.535 74.6003 101.419 75.0805C98.3034 75.5607 95.3384 76.7469 92.7505 78.5487C90.4699 80.1247 88.2265 82.5893 88.0855 86.2723C91.06 83.6239 96.0322 85.9098 97.8872 90.7785L97.696 90.874C97.9238 94.4537 99.6905 98.053 102.092 99.8291C101.91 97.5303 103.086 95.7106 104.351 94.4699C105.615 93.2292 107.086 92.2197 107.871 90.3594C108.803 88.1541 108.578 85.2425 108.591 82.5437C108.603 79.8449 109.045 76.86 110.731 75.7778Z" fill="white"/>
<path d="M97.7257 109.174C97.0688 110.758 95.9967 111.881 95.0946 113.195C94.1966 114.511 93.4277 116.201 93.5793 118.148C93.6773 119.394 94.1392 120.591 94.3509 121.83C94.5626 123.068 94.4246 124.536 93.6471 125.007C92.4188 125.745 90.9269 123.484 89.5341 123.579C88.4277 123.657 87.7894 125.548 88.3918 126.962C88.9943 128.376 90.5927 128.74 91.248 127.612C92.2635 128.745 92.1821 131.178 91.1123 131.797C91.1498 132.629 91.1867 133.458 91.2276 134.289C87.929 132.827 84.5936 131.338 81.5439 128.848C78.1576 126.107 75.6665 122.416 74.3902 118.249C73.3996 114.893 73.1064 110.89 71.0224 108.568C69.3544 106.709 67.11 106.667 65.1981 107.179C64.8495 107.272 64.5008 107.382 64.1562 107.495C64.6245 103.835 65.4231 100.225 66.5423 96.7089C66.9033 96.4621 67.2249 96.162 67.496 95.8187C68.9984 93.9324 69.1902 90.6734 70.2325 88.2409C70.2996 88.0843 70.3707 87.9304 70.4459 87.7793C71.5588 85.5287 73.3662 84.1281 75.1202 82.8115C79.0003 79.8848 82.9995 76.9068 87.5846 76.3075L86.3206 76.685C85.6445 81.1968 84.9673 85.7087 84.289 90.2208C84.1871 90.9123 84.0833 91.6054 83.9774 92.3001C83.5936 94.8657 83.2133 97.5915 83.8714 100.25C84.2608 101.824 85.1457 103.413 86.3025 103.753C87.3806 104.066 88.3288 103.236 89.1538 102.438C89.5039 102.103 89.8506 101.769 90.2 101.431C91.4547 100.223 92.8595 98.9612 94.4984 99.283C95.9989 99.5761 97.3958 101.264 97.991 103.263C98.5587 105.209 98.4654 107.288 97.7257 109.174Z" fill="white"/>
<path d="M111.92 136.284C107.217 134.521 102.514 132.759 97.811 130.997L97.8462 130.799C95.4329 132.306 95.2611 137.16 96.4373 140.871C97.6136 144.583 99.7415 147.689 101.206 151.243C103.195 156.109 103.847 161.419 103.094 166.622C107.395 159.342 110.955 151.649 113.722 143.657C114.127 142.639 114.378 141.565 114.466 140.472C114.516 139.318 114.215 138.001 113.507 137.222C113.064 136.782 112.519 136.46 111.92 136.284Z" fill="white"/>
<path d="M86.1269 92.4874C85.8783 93.5776 85.9693 94.9483 86.5773 95.9065C87.1982 96.885 88.165 97.1926 89.0469 97.4335L91.5909 98.1288C92.4372 98.3601 93.3443 98.5834 94.0687 98.1142C94.9424 97.5483 95.3078 95.931 94.8665 94.5828C94.3968 93.1482 93.2726 92.3186 92.2474 91.6254C90.8127 90.6555 89.378 89.6855 87.9433 88.7155L87.4306 89.676C86.8403 90.5325 86.3995 91.4831 86.1269 92.4874Z" fill="white"/>
<path d="M170.814 92.1857C171.906 92.2268 172.997 92.2679 174.088 92.3091C174.598 95.8709 173.493 99.477 171.384 101.119C170.505 101.802 169.454 102.197 168.827 103.275C168.261 104.254 168.146 105.626 168.05 106.936C167.88 109.221 167.71 111.507 167.541 113.793C167.36 116.256 167.049 119.013 165.553 120.182C164.268 121.186 162.463 120.62 161.075 119.35C159.686 118.08 158.625 116.215 157.593 114.395C158.05 116.509 157.473 118.784 156.222 119.796C154.967 120.808 153.134 120.475 151.875 119.012C150.971 117.962 150.385 116.457 149.49 115.388C148.596 114.319 147.078 113.903 146.579 115.169C146.252 116.01 146.537 117.143 146.488 118.139C146.411 119.686 145.482 120.83 144.398 121.127C143.317 121.423 142.123 121 141.036 120.321C138.793 118.915 136.843 116.367 135.686 113.338C135.173 111.987 134.806 110.478 134.963 109.087C135.12 107.695 135.921 106.489 136.962 106.543C137.343 105.034 135.695 103.455 134.566 103.845C133.434 104.235 132.768 105.663 132.001 106.811C131.237 107.957 130.042 108.916 128.896 108.151C129.076 109.035 128.472 109.763 127.835 109.811C127.202 109.862 126.552 109.471 125.914 109.229C123.448 108.29 120.838 109.747 119.786 112.646C119.946 108.299 120.439 103.25 123.245 101.684C124.391 101.043 125.792 101.111 126.813 100.19C128.62 98.5588 128.122 93.8333 125.976 92.2644C126.558 94.032 126.929 96.1556 126.217 97.5825C125.505 99.0095 123.341 98.5947 123.102 96.7389C123.074 98.056 121.74 98.5174 120.917 97.6716C120.091 96.8265 119.833 95.2297 120.056 93.9827C120.28 92.7356 120.883 91.7532 121.47 90.8091C122.732 88.7812 124.013 86.7285 125.652 85.2875C127.294 83.846 129.362 83.0622 131.429 83.7687C132.519 84.1423 133.565 84.9162 134.662 85.2185C135.76 85.5242 137.016 85.2113 137.449 83.9091C137.936 82.4565 137.205 80.5853 137.16 78.8977C137.088 75.9145 139.706 73.998 141.678 75.5905C140.424 75.5185 139.467 77.1753 139.655 78.9186C139.84 80.6625 141.045 82.2239 142.304 82.5154C144.418 82.9958 145.896 80.4531 146.972 78.1573C148.094 75.7547 149.218 73.3527 150.344 70.9514C150.52 70.5458 150.729 70.1559 150.971 69.786C151.361 69.2213 151.95 68.8259 152.62 68.6801C153.29 68.5343 153.991 68.6489 154.58 69.0007C156.383 69.9652 157.625 72.4253 159.251 73.9667C161.613 76.2068 164.506 76.2964 167.182 76.2957C169.176 76.2925 171.172 76.2912 173.169 76.292C174.92 78.4279 176.524 80.6805 177.969 83.034C174.984 85.0575 172.488 88.2371 170.814 92.1857Z" fill="white"/>
<path d="M184.979 131.488C184.113 134.701 182.988 137.838 181.615 140.868C180.302 140.587 179.182 141.769 178.218 142.86C177.213 144.002 175.964 145.167 174.587 144.577C173.179 143.972 172.312 141.676 172.336 139.717C172.361 137.76 173.05 136.072 173.723 134.464C174.436 132.757 175.208 130.979 176.496 130.117C177.787 129.255 179.756 129.729 180.56 131.649L181.549 131.42C180.84 130.762 180.82 129.115 181.516 128.688C182.316 128.192 183.3 129.233 184.017 130.184C184.339 130.613 184.665 131.046 184.979 131.488Z" fill="white"/>
<path d="M144.049 124.749C141.935 125.304 139.721 122.999 138.085 120.625C136.449 118.252 134.839 115.486 132.648 114.544C131.397 114.006 130.118 114.149 128.849 114.019C127.581 113.888 126.179 113.377 125.305 111.948L123.839 111.666C122.244 113.027 120.629 114.411 119.406 116.357C118.035 118.54 117.419 121.114 117.654 123.683C117.929 126.454 119.482 129.3 121.472 129.971C123.045 130.501 124.591 129.669 126.169 130.127C128.14 130.699 129.729 133.174 130.651 135.744C131.573 138.314 132.012 141.088 132.826 143.71C133.639 146.333 134.98 148.966 136.89 150.016C139.281 151.332 142.015 149.312 142.322 146.004C142.473 144.381 142.117 142.653 142.143 140.994C142.188 138.072 143.386 135.676 144.208 133.125C145.031 130.574 145.42 127.253 144.049 124.749Z" fill="white"/>
<path d="M117.488 101.342C117.724 101.487 117.949 101.648 118.162 101.825C118.4 102.096 118.559 102.428 118.622 102.783C118.686 103.138 118.651 103.504 118.522 103.841C118.777 103.776 119.016 103.658 119.223 103.496C119.43 103.334 119.602 103.13 119.726 102.898C120.029 102.376 120.278 101.824 120.468 101.251C120.616 100.852 120.754 100.324 120.522 99.9299C120.365 99.6609 120.101 99.5846 119.891 99.4003C119.558 99.1081 119.385 98.574 119.154 98.1284C118.657 97.1659 117.798 96.5549 117.005 96.5992L117.116 96.5987C116.815 96.7727 116.69 97.3298 116.852 97.7773C117 98.1848 117.338 98.4807 117.395 98.9146C117.478 99.5385 116.919 99.9486 117.002 100.572C117.057 100.883 117.232 101.159 117.488 101.342Z" fill="white"/>
<path d="M111.765 91.5878C111.768 91.5863 111.771 91.5855 111.774 91.584C111.828 91.511 111.877 91.434 111.919 91.3534L111.765 91.5878Z" fill="#E6E6E6"/>
<path d="M112.975 94.3548C113.388 93.9573 113.487 93.0629 113.192 92.3884C112.899 91.7181 112.256 91.355 111.774 91.584C111.656 91.7624 111.495 91.9078 111.305 92.0066C111.116 92.1053 110.904 92.1542 110.691 92.1487C110.361 92.1294 109.976 91.9887 109.75 92.2789C109.629 92.4862 109.562 92.7206 109.555 92.9607C109.515 93.29 109.475 93.6194 109.435 93.9487C109.409 94.0689 109.42 94.1943 109.468 94.3077C109.497 94.3513 109.536 94.3867 109.582 94.4107C109.628 94.4347 109.68 94.4464 109.732 94.4446C110.372 94.5044 111.011 94.5641 111.651 94.6238C112.117 94.6673 112.617 94.6992 112.975 94.3548Z" fill="white"/>
<path d="M166.448 125.339C166.078 124.936 165.709 124.533 165.34 124.13C164.961 123.653 164.493 123.255 163.963 122.958C163.846 122.894 163.718 122.854 163.586 122.84C163.454 122.826 163.32 122.838 163.193 122.877C163.065 122.915 162.947 122.979 162.845 123.064C162.742 123.149 162.658 123.253 162.597 123.371L162.682 123.626C163.476 124.301 164.324 125.058 164.719 126.213C164.874 126.669 164.947 127.157 165.095 127.616C165.244 128.075 165.498 128.532 165.841 128.675C166.339 128.883 166.77 128.348 166.979 127.757C167.174 127.267 167.198 126.726 167.048 126.22C166.91 125.889 166.706 125.589 166.448 125.339Z" fill="white"/>
<path d="M175.45 105.408C175.426 104.862 175.403 104.316 175.38 103.769C175.397 103.161 175.295 102.555 175.08 101.986C175.032 101.861 174.96 101.748 174.867 101.652C174.775 101.556 174.665 101.48 174.543 101.427C174.42 101.374 174.289 101.347 174.156 101.346C174.023 101.345 173.891 101.37 173.768 101.421L173.67 101.671C173.843 102.699 174.006 103.824 173.564 104.962C173.39 105.411 173.132 105.832 172.95 106.278C172.768 106.725 172.669 107.238 172.839 107.568C173.087 108.048 173.761 107.917 174.301 107.6C174.765 107.351 175.132 106.952 175.342 106.469C175.45 106.127 175.487 105.766 175.45 105.408Z" fill="#E6E6E6"/>
<path d="M170.948 125.075C171.007 124.655 170.722 124.243 170.595 123.816C170.464 123.259 170.504 122.675 170.709 122.141C170.917 121.634 171.044 121.098 171.087 120.552C171.102 120.304 171.042 120.057 170.915 119.843C170.782 119.654 170.539 119.603 170.443 119.793L170.753 119.916C170.368 119.922 169.991 120.016 169.647 120.189C169.456 120.309 169.296 120.474 169.181 120.669C169.067 120.864 169.001 121.083 168.989 121.31C169.01 121.654 169 122 168.962 122.343C168.864 122.713 168.568 122.888 168.427 123.223C168.343 123.512 168.331 123.818 168.394 124.113C168.457 124.408 168.592 124.683 168.788 124.912C169.121 125.285 169.581 125.52 170.078 125.573C170.438 125.627 170.881 125.547 170.948 125.075Z" fill="white"/>
<path d="M179.216 125.9C179.4 126.192 179.621 126.459 179.874 126.694C180.322 126.997 180.784 126.666 181.22 126.485C181.618 126.34 182.049 126.304 182.466 126.384C182.883 126.463 183.271 126.654 183.589 126.936C183.24 126.093 182.695 125.345 181.999 124.757C181.302 124.168 180.475 123.755 179.586 123.552C178.432 123.326 177.298 123.505 176.179 123.684L175.997 123.771C176.766 125.1 178.296 124.767 179.216 125.9Z" fill="white"/>
<path d="M146.729 135.305L146.733 135.311C146.744 135.271 146.756 135.232 146.768 135.192L146.729 135.305Z" fill="#E6E6E6"/>
<path d="M145.995 137.832C145.829 138.352 145.703 138.884 145.617 139.424C145.534 140.287 145.537 141.156 145.627 142.018C145.661 142.512 145.763 143.13 146.111 143.306C146.209 143.347 146.318 143.35 146.418 143.316C146.518 143.282 146.603 143.212 146.656 143.12C146.788 142.91 146.885 142.679 146.943 142.437C147.335 141.299 147.58 140.115 147.673 138.915C147.726 137.66 147.447 136.249 146.733 135.311C146.487 136.151 146.241 136.992 145.995 137.832Z" fill="white"/>
<path d="M122.571 78.9436C122.796 79.0908 123.058 79.169 123.326 79.1688C123.594 79.1686 123.856 79.0898 124.08 78.9423C124.541 78.6227 124.943 78.2262 125.27 77.77C125.553 77.4592 125.774 77.0967 125.921 76.7023C125.998 76.4685 126.029 76.2217 126.011 75.9761C125.993 75.7304 125.927 75.4907 125.816 75.2708C125.521 74.7594 125.01 74.6689 124.566 74.6267C123.856 74.5593 123.146 74.4918 122.436 74.4243L122.836 73.8911C122.284 73.7209 121.829 74.3272 121.638 75.0049C121.517 75.4467 121.462 75.9041 121.474 76.3621C121.497 77.3624 121.887 78.4825 122.571 78.9436Z" fill="#E6E6E6"/>
<path d="M133.635 72.6376C133.865 72.8092 134.152 72.8867 134.437 72.8545C134.722 72.8223 134.984 72.6827 135.17 72.4641C135.331 72.2843 135.453 72.0724 135.528 71.8422C135.602 71.6121 135.627 71.3688 135.601 71.1282C135.545 70.5906 135.169 70.0546 134.787 70.0822L134.776 69.5708C134.032 69.5819 133.144 69.7293 132.93 70.6776C132.866 71.0374 132.897 71.4078 133.021 71.7518C133.145 72.0957 133.356 72.4012 133.635 72.6376Z" fill="#E6E6E6"/>
<path d="M126.889 46.6439C122.587 46.9948 118.601 49.0422 115.808 52.3355C113.015 55.6289 111.644 59.8985 111.996 64.2051C112.73 73.173 121.088 91.3194 131.054 97.554C132.052 81.6649 144.182 69.9753 144.439 61.5587C144.713 52.5653 135.848 45.9132 126.889 46.6439Z" fill="#6C63FF"/>
<path d="M127.807 66.7207C130.684 66.156 132.557 63.3639 131.992 60.4843C131.427 57.6047 128.637 55.728 125.76 56.2927C122.884 56.8573 121.01 59.6495 121.575 62.5291C122.141 65.4087 124.931 67.2853 127.807 66.7207Z" fill="white"/>
<path d="M129.755 105.617C131.639 105.247 132.866 103.418 132.496 101.532C132.126 99.6457 130.298 98.4166 128.414 98.7864C126.53 99.1563 125.303 100.985 125.673 102.871C126.044 104.757 127.871 105.986 129.755 105.617Z" fill="#6C63FF"/>
<path opacity="0.2" d="M130.36 56.9252C131.015 57.1627 131.618 57.5272 132.132 57.9978C132.647 58.4683 133.065 59.0357 133.361 59.6676C133.656 60.2995 133.825 60.9835 133.857 61.6805C133.889 62.3775 133.783 63.074 133.546 63.73C133.309 64.386 132.945 64.9889 132.475 65.5041C132.005 66.0193 131.439 66.4367 130.807 66.7326C129.533 67.3302 128.073 67.3964 126.749 66.9166C128.009 66.9484 129.239 66.5304 130.219 65.7373C131.199 64.9442 131.865 63.8278 132.097 62.588C132.33 61.3481 132.114 60.0657 131.488 58.9703C130.862 57.8748 129.868 57.0379 128.682 56.6093C129.255 56.6233 129.821 56.73 130.36 56.9252Z" fill="#231F20"/>
<path opacity="0.2" d="M144.462 61.5716C144.206 69.9882 132.075 81.6777 131.078 97.5668C130.139 96.9734 129.246 96.3112 128.404 95.5859C130.07 80.5076 141.402 69.3199 141.649 61.188C141.871 53.9098 136.107 48.1657 129.152 46.6265C137.29 47.0557 144.714 53.33 144.462 61.5716Z" fill="#231F20"/>
<path d="M82.0752 76.5691C78.8445 76.8327 75.8512 78.3701 73.7538 80.8433C71.6564 83.3165 70.6267 86.5228 70.8913 89.7569C71.4423 96.4916 77.7185 110.119 85.2031 114.801C85.9522 102.869 95.0618 94.0902 95.2544 87.7696C95.4602 81.0159 88.8029 76.0203 82.0752 76.5691Z" fill="#6C63FF"/>
<path d="M82.7646 91.6461C84.9248 91.222 86.3318 89.1252 85.9073 86.9627C85.4828 84.8003 83.3875 83.391 81.2274 83.815C79.0672 84.239 77.6602 86.3358 78.0847 88.4983C78.5092 90.6608 80.6045 92.0701 82.7646 91.6461Z" fill="white"/>
<path d="M84.2274 120.856C85.6423 120.578 86.5638 119.204 86.2858 117.788C86.0078 116.372 84.6354 115.449 83.2206 115.726C81.8057 116.004 80.8841 117.377 81.1622 118.794C81.4402 120.21 82.8126 121.133 84.2274 120.856Z" fill="#6C63FF"/>
<path opacity="0.2" d="M84.6815 84.29C85.1738 84.4684 85.6261 84.7421 86.0128 85.0955C86.3994 85.4488 86.7128 85.875 86.935 86.3495C87.1571 86.824 87.2838 87.3376 87.3077 87.8611C87.3316 88.3845 87.2523 88.9075 87.0742 89.4002C86.8962 89.8928 86.6229 90.3455 86.2701 90.7324C85.9172 91.1193 85.4917 91.4328 85.0177 91.655C84.5438 91.8773 84.0307 92.0038 83.5078 92.0275C82.9849 92.0512 82.4624 91.9716 81.9701 91.7932C82.9163 91.8171 83.84 91.5032 84.5758 90.9076C85.3117 90.312 85.8116 89.4736 85.9862 88.5425C86.1608 87.6114 85.9987 86.6484 85.5288 85.8258C85.0589 85.0032 84.312 84.3747 83.4217 84.0528C83.8516 84.0633 84.2771 84.1434 84.6815 84.29Z" fill="#231F20"/>
<path opacity="0.2" d="M95.2722 87.7793C95.0795 94.0999 85.9699 102.878 85.2209 114.81C84.5159 114.365 83.8448 113.868 83.2131 113.323C84.4642 102 92.9735 93.598 93.1596 87.4912C93.3262 82.0255 88.9976 77.7119 83.7747 76.556C89.8857 76.8784 95.4608 81.5901 95.2722 87.7793Z" fill="#231F20"/>
<path d="M232.373 194.373L228.079 195.216L222.781 179.035L229.119 177.791L232.373 194.373Z" fill="#A0616A"/>
<path d="M236.286 202.083L233.239 202.681L232.129 199.908L231.302 203.061L223.219 204.648C222.832 204.724 222.43 204.674 222.073 204.505C221.716 204.337 221.422 204.058 221.234 203.711C221.046 203.363 220.974 202.964 221.028 202.573C221.083 202.182 221.261 201.818 221.536 201.535L227.114 195.806L226.543 192.894L233.411 191.967L236.286 202.083Z" fill="#2F2E41"/>
<path d="M215.74 197.638L211.445 198.481L206.147 182.3L212.485 181.056L215.74 197.638Z" fill="#A0616A"/>
<path d="M219.652 205.348L216.605 205.946L215.496 203.173L214.668 206.326L206.586 207.913C206.198 207.989 205.797 207.939 205.44 207.77C205.083 207.602 204.788 207.323 204.601 206.976C204.413 206.628 204.34 206.23 204.395 205.838C204.449 205.447 204.627 205.083 204.903 204.8L210.481 199.071L209.909 196.159L216.778 195.232L219.652 205.348Z" fill="#2F2E41"/>
<path d="M190.83 157.06C191.894 158.133 207.494 190.302 207.494 190.302L215.599 189.651L212.983 181.3L208.579 166.477L204.373 156.832C204.373 156.832 208.72 137.37 208.937 135.845L209.09 134.751L215.929 156.593C216.378 157.333 216.671 158.156 216.792 159.012C216.992 160.421 222.508 181.126 222.508 181.126L224.656 188.518L231.634 188.129L231.834 174.571C233.305 169.89 229.036 155.122 227.82 153.908C226.605 152.694 225.067 142.88 225.067 142.88C226.185 142.221 228.549 116.355 224.993 117.203C224.968 115.853 224.92 114.654 224.92 114.654L217.713 110.852L201.348 109.857L197.049 108.74C197.049 108.74 192.583 123.103 192.78 123.735C193.037 124.534 193.012 125.398 192.709 126.18L190.285 151.302C190.285 151.302 189.756 155.977 190.83 157.06Z" fill="#2F2E41"/>
<path d="M213.276 64.4633L209.766 59.685L201.399 61.6642L199.725 67.6808C199.725 67.6808 193.711 78.6196 194.056 81.7248C194.491 85.6303 200.846 103.941 197.948 103.242C197.948 103.242 193.126 111.838 196.835 111.11C200.543 110.382 219.39 117.632 220.723 118.601C222.057 119.571 227.122 119.375 226.224 116.98C225.326 114.586 220.569 101.617 220.569 101.617L222.201 79.4368C222.968 74.5667 222.483 69.3678 218.134 67.0512L213.276 64.4633Z" fill="#CCCCCC"/>
<path d="M179.008 55.0981C177.793 54.8714 176.545 54.8865 175.335 55.1427C174.126 55.3988 172.978 55.8909 171.959 56.5909C170.94 57.2909 170.068 58.185 169.394 59.2223C168.72 60.2596 168.257 61.4197 168.031 62.6364C167.08 67.7532 168.994 79.1513 173.612 84.1456C176.579 75.429 185.124 70.7481 186.543 66.0895C188.06 61.1116 184.12 56.0517 179.008 55.0981Z" fill="#6C63FF"/>
<path d="M177.287 66.3936C178.951 66.067 180.035 64.4518 179.708 62.786C179.381 61.1203 177.767 60.0347 176.103 60.3613C174.439 60.688 173.355 62.3031 173.682 63.9689C174.009 65.6347 175.623 66.7202 177.287 66.3936Z" fill="white"/>
<path d="M172.196 88.4157C173.286 88.2018 173.996 87.1439 173.781 86.0528C173.567 84.9618 172.51 84.2507 171.42 84.4647C170.33 84.6786 169.62 85.7365 169.835 86.8276C170.049 87.9186 171.106 88.6296 172.196 88.4157Z" fill="#6C63FF"/>
<path opacity="0.2" d="M179.386 61.3638C180.052 61.8332 180.504 62.5476 180.643 63.3502C180.783 64.1528 180.599 64.9779 180.131 65.6442C179.663 66.3105 178.95 66.7635 178.148 66.9037C177.346 67.0438 176.522 66.8597 175.856 66.3917C176.554 66.6009 177.304 66.5545 177.971 66.2608C178.639 65.967 179.18 65.4451 179.498 64.7884C179.815 64.1318 179.889 63.3832 179.706 62.6767C179.523 61.9703 179.095 61.352 178.498 60.9326C178.815 61.0274 179.115 61.1731 179.386 61.3638Z" fill="#231F20"/>
<path opacity="0.2" d="M186.555 66.1003C185.135 70.7588 176.59 75.4397 173.624 84.1563C173.19 83.6825 172.791 83.1771 172.432 82.6444C175.648 74.482 183.671 69.9597 185.042 65.4587C186.27 61.4302 183.923 57.3483 180.274 55.4323C184.752 56.9085 187.945 61.5385 186.555 66.1003Z" fill="#231F20"/>
<path d="M170.785 85.9346C171.225 85.7498 171.701 85.664 172.178 85.6831C172.655 85.7021 173.122 85.8257 173.546 86.0449C173.97 86.2642 174.341 86.5739 174.633 86.9522C174.925 87.3305 175.13 87.7682 175.234 88.2344L182.585 89.5192L182.897 94.1809L172.541 92.2206C171.747 92.3441 170.935 92.1718 170.259 91.7362C169.584 91.3006 169.091 90.6321 168.874 89.8572C168.658 89.0824 168.733 88.2551 169.085 87.5321C169.437 86.8091 170.042 86.2407 170.785 85.9345L170.785 85.9346Z" fill="#A0616A"/>
<path d="M216.705 67.1881C215.899 66.8895 215.042 66.7532 214.183 66.7868C213.325 66.8205 212.481 67.0235 211.701 67.3842C210.921 67.7449 210.22 68.2562 209.638 68.8888C209.056 69.5214 208.605 70.2629 208.31 71.0706L201.683 89.2155L178.467 88.3062L177.536 94.257L208.587 102.151L218.471 76.3871C220.031 72.9339 220.256 68.5036 216.705 67.1881Z" fill="#CCCCCC"/>
<path d="M213.169 47.2393C213.477 48.8024 213.396 50.417 212.935 51.9414C212.473 53.4657 211.645 54.8532 210.523 55.982C209.4 57.1109 208.018 57.9466 206.498 58.4157C204.977 58.8848 203.364 58.9731 201.801 58.6728C200.238 58.3724 198.773 57.6926 197.533 56.6931C196.294 55.6935 195.318 54.4048 194.692 52.94C194.066 51.4751 193.809 49.879 193.943 48.2918C194.077 46.7045 194.598 45.1746 195.461 43.8364L195.498 43.7816C195.558 43.6864 195.619 43.5912 195.684 43.499C195.685 43.4989 195.685 43.4987 195.685 43.4985C195.686 43.4982 195.686 43.4978 195.687 43.4974C195.687 43.497 195.687 43.4965 195.687 43.496C195.687 43.4955 195.687 43.4949 195.687 43.4944C195.768 43.3833 195.85 43.2721 195.935 43.1641C197.076 41.6836 198.62 40.5639 200.38 39.939C202.141 39.314 204.044 39.2103 205.863 39.6403C207.681 40.0703 209.337 41.0158 210.633 42.3635C211.929 43.7112 212.81 45.404 213.169 47.2393L213.169 47.2393Z" fill="#2F2E41"/>
<path d="M203.285 59.7909C207.703 58.9237 210.581 54.6353 209.713 50.2126C208.844 45.7899 204.559 42.9076 200.141 43.7749C195.723 44.6421 192.846 48.9305 193.714 53.3532C194.582 57.7759 198.867 60.6582 203.285 59.7909Z" fill="#9E616A"/>
<path d="M210.656 52.3991L209.285 52.4249C208.518 52.4356 207.766 52.2115 207.129 51.7827C206.493 51.354 206.002 50.7409 205.723 50.0256L204.855 52.4492L204.803 52.4791C201.922 54.1081 198.656 54.4311 194.82 53.4675C193.722 53.1878 192.643 52.8413 191.587 52.4301L191.509 52.4004L191.488 52.3201C190.797 49.7501 190.954 47.4592 191.93 45.8691C192.306 45.2689 192.805 44.7553 193.394 44.3618C193.983 43.9683 194.648 43.7038 195.346 43.5856C195.393 43.563 195.433 43.529 195.464 43.4867C195.479 43.47 195.494 43.4536 195.51 43.4377L195.507 43.4243L195.59 43.3629C195.77 43.2313 195.953 43.1028 196.139 42.982C197.601 42.0579 199.294 41.5657 201.024 41.5619C202.754 41.5581 204.45 42.043 205.917 42.9607C208.843 44.832 210.749 48.5621 210.66 52.243L210.656 52.3991Z" fill="#2F2E41"/>
<path d="M228.868 55.91C225.87 55.0378 228.369 49.2455 227.079 46.3989C225.79 43.5523 220.535 43.5868 219.614 40.6005C218.692 37.6142 217.316 34.6178 214.851 32.6984C213.276 31.4718 211.169 30.7517 209.257 31.3195C208.61 31.5116 208.012 31.841 207.504 32.2854C206.995 32.7298 206.589 33.2786 206.312 33.8946C206.034 34.5105 205.893 35.1791 205.897 35.8547C205.902 36.5304 206.051 37.1972 206.336 37.8099C205.627 37.1318 204.224 37.5842 204.045 38.5492C203.885 39.4071 204.772 40.234 205.607 40.1432C206.943 41.2611 208.451 42.4298 210.188 42.3673C210.468 42.3763 210.747 42.3214 211.003 42.2068C211.259 42.0921 211.486 41.9208 211.666 41.7055C211.987 41.2469 211.869 40.4794 211.343 40.287C213.624 40.7131 215.315 42.7603 216.072 44.9565C216.829 47.1528 216.843 49.5226 217.001 51.8404C217.159 54.1581 217.502 56.5614 218.8 58.4877C220.334 60.7636 223.093 62.0691 225.834 62.1232C228.576 62.1774 231.267 61.0702 233.4 59.3471C235.534 57.6239 237.143 55.317 238.342 52.8493C235.939 55.383 232.221 56.8853 228.868 55.91Z" fill="#2F2E41"/>
<path d="M210.272 52.2433C210.272 52.2433 206.164 43.8538 195.605 43.8041C195.593 43.8026 195.552 43.7947 195.498 43.7816C195.464 43.7685 195.422 43.7569 195.38 43.7453C195.481 43.6578 195.581 43.5789 195.684 43.499C195.685 43.4989 195.685 43.4987 195.685 43.4985C195.686 43.4982 195.686 43.4978 195.687 43.4974C195.687 43.497 195.687 43.4965 195.687 43.496C195.687 43.4955 195.687 43.495 195.687 43.4945C195.768 43.3833 195.85 43.2721 195.935 43.1641L196.228 43.1186C196.228 43.1186 206.103 39.502 210.272 52.2433Z" fill="#FD6584"/>
<path opacity="0.2" d="M210.544 81.6973L206.113 89.4774L196.084 88.5359L207.354 91.2748L210.544 81.6973Z" fill="black"/>
<path d="M268.788 196.223L180.601 213.637C180.5 213.656 180.396 213.635 180.311 213.577C180.225 213.52 180.166 213.431 180.147 213.33C180.127 213.229 180.148 213.124 180.205 213.039C180.262 212.953 180.351 212.894 180.452 212.874L268.638 195.461C268.739 195.441 268.844 195.462 268.929 195.52C269.015 195.577 269.074 195.666 269.094 195.767C269.114 195.868 269.092 195.973 269.035 196.059C268.978 196.144 268.889 196.203 268.788 196.223Z" fill="#CACACA"/>
<path d="M261.028 136.209C256.898 137.02 252.34 137.753 247.355 138.407C221.571 141.787 187.479 142.634 151.36 140.791C115.241 138.949 81.409 134.638 56.0977 128.652C43.7677 125.735 34.124 122.577 27.4344 119.264C20.352 115.756 16.8521 112.174 17.0316 108.618C17.3816 101.689 31.6788 97.3812 43.6111 94.9879L43.8037 95.9477C27.4175 99.2344 18.2566 103.752 18.0085 108.668C17.6922 114.929 31.657 121.865 56.3222 127.699C81.5779 133.672 115.347 137.974 151.409 139.814C187.471 141.653 221.5 140.808 247.228 137.436C272.353 134.143 286.945 128.662 287.261 122.401C287.524 117.203 277.947 111.501 260.294 106.345L260.568 105.405C273.394 109.152 288.607 115.15 288.238 122.451C288.059 126.008 284.216 129.215 276.817 131.984C272.599 133.562 267.315 134.975 261.028 136.209Z" fill="#6C63FF"/>
</g>
<defs>
<clipPath id="clip0_4_103">
<rect width="269" height="193" fill="white" transform="translate(0.492676 52.3088) rotate(-11.106)"/>
</clipPath>
</defs>
</svg>
