<svg width="189" height="183" viewBox="0 0 189 183" fill="none" xmlns="http://www.w3.org/2000/svg">
<g clip-path="url(#clip0_4_66)">
<path d="M153.718 99.6312C153.87 99.054 153.791 98.4401 153.498 97.9201C153.204 97.4 152.72 97.0149 152.146 96.8466C152.029 96.8143 151.91 96.7916 151.789 96.779L149.898 89.0097L145.617 88.5808L149.358 98.9441C149.345 99.4486 149.499 99.9436 149.796 100.352C150.093 100.76 150.518 101.058 151.002 101.2C151.279 101.278 151.568 101.301 151.853 101.267C152.139 101.233 152.415 101.144 152.665 101.004C152.916 100.863 153.137 100.675 153.315 100.449C153.492 100.224 153.624 99.9657 153.702 99.6892C153.708 99.67 153.713 99.6506 153.718 99.6312Z" fill="#A0616A"/>
<path d="M118.947 169.437L115.734 168.489L117.856 155.648L122.6 157.046L118.947 169.437Z" fill="#A0616A"/>
<path d="M118.073 172.821L108.19 169.908L108.226 169.783C108.527 168.763 109.221 167.905 110.154 167.396C111.088 166.888 112.186 166.771 113.207 167.072L113.207 167.072L115.416 166.235L118.381 168.597L119.243 168.851L118.073 172.821Z" fill="#2F2E41"/>
<path d="M127.774 151.978L124.908 153.713L116.846 143.489L121.075 140.928L127.774 151.978Z" fill="#A0616A"/>
<path d="M129.687 154.905L120.875 160.24L120.808 160.129C120.256 159.22 120.089 158.129 120.342 157.096C120.596 156.064 121.249 155.174 122.158 154.623L122.159 154.623L123.028 152.428L126.771 151.83L127.54 151.364L129.687 154.905Z" fill="#2F2E41"/>
<path d="M122.537 81.0507L113.287 90.2342L111.432 98.2359L101.386 122.932L119.362 149.852L123.667 146.343L115.288 125.269L115.806 124.102C115.674 123.676 115.701 123.217 115.882 122.809C116.064 122.401 116.387 122.073 116.792 121.886C118.271 121.12 117.35 120.631 117.35 120.631L123.492 106.819L137.952 108.115L138.59 84.8245L122.537 81.0507Z" fill="#2F2E41"/>
<path d="M126.042 99.0217L115.423 161.513L121.487 163.983L127.705 142.882C127.705 142.882 126.887 141.393 128.198 141.209C129.51 141.026 128.933 138.717 128.933 138.717L137.952 108.115L134.838 97.34L126.042 99.0217Z" fill="#2F2E41"/>
<path d="M128.174 44.8401L122.006 45.285L116.584 51.7326C116.584 51.7326 108.087 53.2512 109.364 59.159C110.642 65.0668 118.526 79.5308 118.526 79.5308C116.373 81.7936 116.236 83.9822 118.027 86.0999C119.557 91.6051 128.373 91.7271 138.504 90.8776C141.394 87.2731 140.662 80.1552 139.966 73.0735L143.157 64.8441C143.157 64.8441 138.596 50.879 137.308 50.5491C136.021 50.2192 131.196 48.2448 131.196 48.2448L128.174 44.8401Z" fill="#3F3D56"/>
<path d="M134.877 51.1156C135.488 50.8041 136.161 50.6319 136.846 50.6113C137.532 50.5907 138.214 50.7222 138.843 50.9964C139.471 51.2706 140.032 51.6807 140.483 52.1972C140.934 52.7136 141.265 53.3236 141.453 53.9832L147.911 76.7226C148.911 77.615 149.129 79.0277 149.027 80.6536C149.976 80.6152 150.462 81.3768 149.942 83.8757L152.378 92.4523L146.848 95.8511L143.336 86.5193C142.101 85.7706 143.29 84.0352 142.335 83.8574C141.38 83.6797 141.497 81.6305 141.497 81.6305C140.331 81.2728 140.149 80.6233 140.782 79.7322L133.947 59.3937L134.877 51.1156Z" fill="#3F3D56"/>
<path d="M83.5186 35.5105C83.5348 36.1073 83.7834 36.6743 84.2114 37.0908C84.6394 37.5073 85.213 37.7405 85.8103 37.7408C85.9317 37.7389 86.0527 37.727 86.1721 37.7052L90.1743 44.6289L94.4031 43.8361L87.8948 34.9436C87.7658 34.4556 87.4788 34.0239 87.0786 33.716C86.6784 33.408 86.1875 33.2412 85.6826 33.2414C85.3952 33.2443 85.1113 33.3037 84.847 33.4163C84.5826 33.5289 84.3431 33.6924 84.142 33.8975C83.941 34.1027 83.7823 34.3454 83.6751 34.6118C83.5679 34.8783 83.5142 35.1633 83.5172 35.4505C83.5174 35.4705 83.5179 35.4905 83.5186 35.5105Z" fill="#A0616A"/>
<path d="M115.507 53.6782L107.188 53.7405L102.056 51.2988L101.103 50.0807C100.997 48.5223 100.144 47.5527 98.7976 46.9718C98.7976 46.9718 97.5542 47.0258 97.9339 45.807C98.3137 44.5883 92.2026 38.0103 92.2026 38.0103L87.258 42.8386L89.9242 49.1556C91.3896 49.6371 92.3583 49.7106 91.0671 51.2524C90.8793 53.0483 90.7785 52.5889 92.0387 52.9941L96.6184 61.4368L109.66 67.5432L119.233 67.0459L115.507 53.6782Z" fill="#3F3D56"/>
<path d="M120.896 42.4005C124.823 43.5577 128.943 41.3144 130.1 37.3901C131.256 33.4658 129.011 29.3464 125.085 28.1893C121.158 27.0321 117.038 29.2754 115.881 33.1997C114.725 37.1241 116.97 41.2434 120.896 42.4005Z" fill="#A0616A"/>
<path d="M127.592 36.5028C127.609 36.4214 127.625 36.3395 127.638 36.257C127.604 36.3344 127.588 36.4184 127.592 36.5028Z" fill="#2F2E41"/>
<path d="M114.534 27.5017C114.661 26.6124 115.421 25.7861 116.321 25.7944C116.882 25.7992 117.392 26.1035 117.926 26.2711C119.425 26.7403 122.84 25.0215 124.407 25.0657C125.976 25.1119 127.625 26.4679 127.301 28.0029C131.351 27.9922 133.456 31.3375 132.464 35.3427C131.689 38.4751 127.815 41.9144 124.635 42.4722C124.826 40.5726 126.879 38.2461 127.07 36.3486C127.157 35.8361 127.138 35.311 127.014 34.8061C126.858 34.3119 126.436 33.8637 125.918 33.8435C125.704 33.8438 125.498 33.9241 125.341 34.0687C125.183 34.2132 125.086 34.4114 125.068 34.6243C124.927 34.0625 124.648 33.5446 124.256 33.1175C123.865 32.6904 123.373 32.3676 122.825 32.1783C122.277 31.9889 121.691 31.939 121.119 32.033C120.548 32.127 120.008 32.362 119.55 32.7167L120.42 31.216C119.1 32.0175 117.579 32.4258 116.035 32.3929C115.984 32.2671 115.957 32.1327 115.955 31.9969C115.952 31.857 115.984 31.7185 116.05 31.5948C116.115 31.4712 116.212 31.3667 116.33 31.2914C116.093 31.3835 115.878 31.5225 115.697 31.7001C115.516 31.8776 115.372 32.0901 115.275 32.3246C114.371 32.2197 113.537 31.785 112.934 31.1037C112.363 30.4076 114.408 28.391 114.534 27.5017Z" fill="#2F2E41"/>
<path d="M140.152 180.123L132.471 177.86L132.455 177.79C132.41 177.583 132.37 177.367 132.339 177.147C132.047 175.221 132.283 173.186 132.491 171.39L132.649 170.037C132.668 169.873 132.735 169.719 132.843 169.594C132.95 169.468 133.092 169.378 133.251 169.334C133.411 169.29 133.579 169.295 133.736 169.347C133.892 169.4 134.029 169.498 134.13 169.629C135.047 170.822 135.965 172.014 136.883 173.205C137.231 173.657 137.626 174.179 137.992 174.724C138.105 174.511 138.221 174.298 138.336 174.088C138.415 173.943 138.536 173.825 138.682 173.75C138.829 173.674 138.995 173.643 139.159 173.663C139.323 173.682 139.478 173.749 139.603 173.856C139.729 173.964 139.819 174.106 139.863 174.265L140.337 175.973C140.682 177.22 140.954 178.429 140.506 179.515C140.503 179.528 140.498 179.542 140.491 179.554C140.413 179.731 140.316 179.899 140.202 180.055L140.152 180.123Z" fill="#F0F0F0"/>
<path d="M147.812 182.562L74.8021 161.122C74.7293 161.1 74.6682 161.05 74.632 160.984C74.5959 160.917 74.5876 160.839 74.6091 160.766C74.6305 160.693 74.6799 160.632 74.7465 160.595C74.8131 160.559 74.8915 160.55 74.9644 160.571L147.975 182.011C148.047 182.033 148.108 182.082 148.145 182.149C148.181 182.216 148.189 182.294 148.168 182.367C148.146 182.44 148.097 182.501 148.03 182.538C147.964 182.574 147.885 182.583 147.812 182.562Z" fill="#CACACA"/>
<path d="M73.0349 128.656L14.4782 111.399C13.0673 110.981 11.8796 110.021 11.1756 108.73C10.4716 107.438 10.3088 105.92 10.7229 104.509L33.9026 25.8571C34.3199 24.4469 35.2799 23.26 36.5718 22.5566C37.8637 21.8533 39.3822 21.691 40.794 22.1053L99.3506 39.3626C100.761 39.7801 101.949 40.74 102.653 42.0316C103.357 43.3231 103.52 44.8409 103.106 46.252L79.9262 124.904C79.5089 126.314 78.549 127.501 77.2571 128.205C75.9651 128.908 74.4467 129.07 73.0349 128.656Z" fill="white"/>
<path d="M73.0349 128.656L14.4782 111.399C13.0673 110.981 11.8796 110.021 11.1756 108.73C10.4716 107.438 10.3088 105.92 10.7229 104.509L33.9026 25.8571C34.3199 24.4469 35.2799 23.26 36.5718 22.5566C37.8637 21.8533 39.3822 21.691 40.794 22.1053L99.3506 39.3626C100.761 39.7801 101.949 40.74 102.653 42.0316C103.357 43.3231 103.52 44.8409 103.106 46.252L79.9262 124.904C79.5089 126.314 78.549 127.501 77.2571 128.205C75.9651 128.908 74.4467 129.07 73.0349 128.656ZM40.6576 22.568C39.3686 22.1896 37.9822 22.3378 36.8026 22.98C35.623 23.6222 34.7465 24.7059 34.3655 25.9935L11.1858 104.646C10.8077 105.934 10.9564 107.32 11.5992 108.499C12.242 109.678 13.3264 110.555 14.6146 110.936L73.1712 128.193C74.4603 128.572 75.8467 128.423 77.0263 127.781C78.2058 127.139 79.0823 126.055 79.4633 124.768L102.643 46.1156C103.021 44.8272 102.873 43.4414 102.23 42.2621C101.587 41.0828 100.502 40.2065 99.2143 39.8253L40.6576 22.568Z" fill="#E6E6E6"/>
<path d="M41.8204 50.6309C42.9708 50.9699 44.1781 50.3126 44.517 49.1628C44.8559 48.0129 44.198 46.806 43.0475 46.4669C41.8971 46.1279 40.6898 46.7851 40.3509 47.935C40.012 49.0848 40.6699 50.2918 41.8204 50.6309Z" fill="#CCCCCC"/>
<path d="M85.1839 61.3992L49.4842 50.8781C49.4228 50.86 49.3711 50.8183 49.3405 50.7621C49.3099 50.7059 49.3028 50.6399 49.3209 50.5785C49.339 50.5172 49.3807 50.4655 49.4369 50.4349C49.4931 50.4044 49.5592 50.3973 49.6205 50.4154L85.3202 60.9365C85.3816 60.9546 85.4333 60.9963 85.4639 61.0525C85.4945 61.1087 85.5016 61.1747 85.4835 61.2361C85.4654 61.2974 85.4237 61.3491 85.3675 61.3797C85.3113 61.4102 85.2453 61.4173 85.1839 61.3992Z" fill="#CCCCCC"/>
<path d="M30.5508 89.2971C31.7012 89.6361 32.9085 88.9789 33.2474 87.829C33.5863 86.6792 32.9284 85.4722 31.7779 85.1332C30.6275 84.7941 29.4202 85.4514 29.0813 86.6012C28.7425 87.7511 29.4004 88.958 30.5508 89.2971Z" fill="#CCCCCC"/>
<path d="M36.9532 67.1981C38.1037 67.5371 39.311 66.8798 39.6499 65.73C39.9887 64.5802 39.3308 63.3732 38.1804 63.0341C37.03 62.6951 35.8227 63.3524 35.4838 64.5022C35.1449 65.6521 35.8028 66.859 36.9532 67.1981Z" fill="#CCCCCC"/>
<path d="M83.0439 66.9533L73.786 64.2249C73.5404 64.1525 73.3337 63.9856 73.2112 63.7609C73.0887 63.5362 73.0605 63.2721 73.1329 63.0267C73.2052 62.7813 73.3721 62.5747 73.5968 62.4523C73.8216 62.3299 74.0858 62.3019 74.3314 62.3742L83.5893 65.1026C83.8349 65.175 84.0416 65.3419 84.1641 65.5666C84.2866 65.7913 84.3148 66.0554 84.2424 66.3008C84.1701 66.5462 84.0032 66.7528 83.7784 66.8752C83.5537 66.9976 83.2895 67.0257 83.0439 66.9533Z" fill="#6C63FF"/>
<path d="M76.2946 89.855L67.0366 87.1265C66.791 87.0542 66.5843 86.8873 66.4618 86.6626C66.3393 86.4379 66.3112 86.1738 66.3835 85.9284C66.4558 85.683 66.6227 85.4763 66.8475 85.354C67.0722 85.2316 67.3364 85.2035 67.582 85.2759L76.84 88.0043C77.0855 88.0767 77.2922 88.2436 77.4147 88.4683C77.5372 88.693 77.5654 88.9571 77.4931 89.2025C77.4207 89.4479 77.2538 89.6545 77.0291 89.7769C76.8043 89.8992 76.5401 89.9273 76.2946 89.855Z" fill="#6C63FF"/>
<path d="M81.4633 47.7316L54.8713 39.8946C54.2235 39.7037 53.678 39.2634 53.3548 38.6706C53.0317 38.0777 52.9574 37.3809 53.1482 36.7335C53.339 36.086 53.7793 35.5409 54.3723 35.2181C54.9653 34.8952 55.6624 34.8211 56.3102 35.012L82.9022 42.849C83.55 43.0399 84.0955 43.4802 84.4186 44.073C84.7418 44.6659 84.8161 45.3627 84.6253 46.0101C84.4345 46.6576 83.9941 47.2027 83.4011 47.5255C82.8082 47.8484 82.1111 47.9225 81.4633 47.7316Z" fill="#6C63FF"/>
<path d="M67.7726 118.771L58.5146 116.043C58.2691 115.97 58.0623 115.804 57.9399 115.579C57.8174 115.354 57.7892 115.09 57.8615 114.845C57.9339 114.599 58.1008 114.393 58.3255 114.27C58.5503 114.148 58.8145 114.12 59.06 114.192L68.318 116.921C68.5636 116.993 68.7703 117.16 68.8928 117.385C69.0153 117.609 69.0434 117.873 68.9711 118.119C68.8988 118.364 68.7319 118.571 68.5071 118.693C68.2824 118.816 68.0181 118.844 67.7726 118.771Z" fill="#6C63FF"/>
<path d="M67.6467 112.549L36.5006 103.37C36.3047 103.31 36.1163 103.228 35.9392 103.125C35.4097 102.82 34.9985 102.345 34.7722 101.778C34.5458 101.211 34.5175 100.584 34.6919 99.9986L37.8103 89.4176C38.0153 88.7258 38.4866 88.1436 39.1206 87.7988C39.7547 87.454 40.4997 87.3747 41.1923 87.5783L72.3037 96.7472C72.7234 96.8696 73.107 97.0926 73.4211 97.3966C73.5464 97.5169 73.6594 97.6493 73.7584 97.792C73.9969 98.1259 74.1559 98.5097 74.2234 98.9143C74.2909 99.3189 74.2651 99.7336 74.1478 100.127L71.0294 110.708C70.8246 111.4 70.3534 111.983 69.7192 112.328C69.0851 112.673 68.3397 112.753 67.6467 112.549ZM41.056 88.041C40.4862 87.8734 39.8731 87.9386 39.3515 88.2222C38.8298 88.5059 38.442 88.9848 38.2732 89.554L35.1548 100.135C35.0113 100.617 35.0346 101.133 35.2209 101.599C35.4072 102.066 35.7456 102.457 36.1814 102.708C36.3261 102.792 36.4798 102.859 36.6398 102.908L67.783 112.087C68.3533 112.254 68.9666 112.188 69.4884 111.904C70.0102 111.62 70.3979 111.141 70.5665 110.571L73.6849 99.9902C73.7813 99.6667 73.8024 99.3255 73.7467 98.9926C73.6911 98.6597 73.56 98.3439 73.3636 98.0693C73.2824 97.952 73.1897 97.8432 73.0868 97.7444C72.8283 97.4941 72.5127 97.3106 72.1674 97.2098L41.056 88.041Z" fill="#E6E6E6"/>
<path d="M65.6272 111.703C68.0538 108.684 70.5459 105.722 73.1037 102.816L71.4211 108.525C69.8754 109.834 68.1964 110.976 66.4118 111.934L65.6272 111.703Z" fill="#E6E6E6"/>
<path d="M73.5602 97.9296C69.2832 102.122 64.8992 106.201 60.408 110.165L59.8757 110.008C64.4403 105.983 68.8996 101.837 73.2536 97.5702C73.3675 97.6795 73.4702 97.7999 73.5602 97.9296Z" fill="#E6E6E6"/>
<path d="M51.4116 97.3558C48.6307 100.048 45.6931 102.574 42.6142 104.921L39.441 103.985C42.2653 102.067 45.0911 100.149 47.9184 98.2321C48.7303 97.6794 49.6033 97.107 50.5863 97.0749L51.4116 97.3558Z" fill="#E6E6E6"/>
<path d="M47.3473 95.5948C46.9148 95.842 46.492 96.1071 46.0837 96.3915C45.1932 96.989 44.3099 97.5961 43.425 98.2002C42.8741 98.5758 42.3232 98.9515 41.7769 99.3286C41.6738 99.2095 41.58 99.0826 41.4963 98.9492C41.0203 98.2059 40.8544 97.3059 41.0342 96.442C41.214 95.5782 41.7252 94.8192 42.4582 94.3276C43.1913 93.8361 44.0878 93.6512 44.9558 93.8125C45.8238 93.9738 46.5941 94.4685 47.1017 95.1906C47.1937 95.3189 47.2758 95.454 47.3473 95.5948Z" fill="#6C63FF"/>
<path d="M64.5826 103.118L59.1553 99.1024L56.4601 97.1088C55.5821 96.4604 54.7214 95.7617 53.7817 95.2032C52.9725 94.6904 52.0307 94.4259 51.0728 94.4425C50.2057 94.5013 49.3594 94.7342 48.5844 95.1272C48.243 95.2956 47.9078 95.4742 47.5788 95.663C47.1462 95.9102 46.7235 96.1753 46.3151 96.4597C45.4247 97.0572 44.5414 97.6643 43.6565 98.2684C43.1056 98.644 42.5546 99.0197 42.0083 99.3968C40.1885 100.638 38.3753 101.885 36.5687 103.139C36.3914 103.084 36.221 103.01 36.0608 102.916C37.9447 101.611 39.8337 100.311 41.7277 99.0174C41.946 98.8655 42.1697 98.7127 42.3903 98.5615C43.3132 97.9309 44.2367 97.3013 45.1606 96.6726C45.8749 96.1867 46.5859 95.6948 47.3332 95.2588C47.4004 95.2183 47.467 95.1801 47.5366 95.1402C49.0434 94.2869 50.7962 93.657 52.531 94.1381C53.5518 94.4214 54.4384 95.0321 55.2825 95.6505C56.1901 96.3177 57.0934 96.9913 57.9997 97.6632L63.4639 101.707L64.8311 102.719C65.0733 102.896 64.8281 103.301 64.5826 103.118Z" fill="#E6E6E6"/>
<path d="M51.0307 76.1722L43.8122 74.0448C43.4265 73.9307 43.1017 73.6683 42.9093 73.3152C42.7168 72.9621 42.6723 72.5471 42.7855 72.1613L44.7746 65.412C44.8887 65.0265 45.1511 64.702 45.5043 64.5097C45.8575 64.3174 46.2727 64.273 46.6586 64.3863L53.8772 66.5137C54.2629 66.6278 54.5876 66.8902 54.7801 67.2434C54.9725 67.5965 55.017 68.0114 54.9038 68.3972L52.9147 75.1465C52.8006 75.5321 52.5382 75.8566 52.185 76.0488C51.8318 76.2411 51.4167 76.2855 51.0307 76.1722Z" fill="#E6E6E6"/>
<path d="M63.9065 79.9669L56.688 77.8395C56.3022 77.7253 55.9775 77.4629 55.785 77.1098C55.5926 76.7567 55.5481 76.3417 55.6613 75.956L57.6504 69.2066C57.7645 68.8211 58.0269 68.4966 58.3801 68.3043C58.7333 68.112 59.1485 68.0677 59.5344 68.181L66.7529 70.3083C67.1387 70.4225 67.4634 70.6849 67.6559 71.038C67.8483 71.3911 67.8928 71.8061 67.7796 72.1918L65.7905 78.9412C65.6764 79.3267 65.414 79.6512 65.0608 79.8435C64.7076 80.0358 64.2924 80.0801 63.9065 79.9669Z" fill="#E6E6E6"/>
<path d="M76.7822 83.7615L69.5637 81.6341C69.178 81.52 68.8533 81.2576 68.6608 80.9044C68.4684 80.5513 68.4239 80.1364 68.5371 79.7506L70.5262 73.0013C70.6403 72.6158 70.9027 72.2913 71.2559 72.099C71.6091 71.9067 72.0242 71.8623 72.4102 71.9756L79.6287 74.103C80.0144 74.2171 80.3392 74.4795 80.5316 74.8326C80.7241 75.1857 80.7686 75.6007 80.6554 75.9865L78.6663 82.7358C78.5522 83.1213 78.2898 83.4458 77.9366 83.6381C77.5834 83.8304 77.1682 83.8748 76.7822 83.7615Z" fill="#E6E6E6"/>
</g>
<defs>
<clipPath id="clip0_4_66">
<rect width="153.848" height="144.629" fill="white" transform="translate(41.3778 0.492676) rotate(16.4208)"/>
</clipPath>
</defs>
</svg>
